# 3ds Max Wavefront OBJ Exporter v0.97b - (c)2007 guruware
# File Created: 04.06.2017 01:38:41

mtllib ROCK 2.mtl

#
# object Box001
#

v  -1.8956 1.5852 5.7846
v  -3.1197 1.5852 3.0165
v  -0.6162 1.5852 3.0165
v  -0.6162 1.5852 6.7288
v  1.5853 1.5852 3.0165
v  1.5853 1.5852 6.9885
v  3.7867 1.5852 3.0165
v  3.7867 1.5852 6.9885
v  6.3864 1.5852 3.0165
v  4.8075 1.5852 6.1673
v  -3.1197 1.5852 -0.9554
v  -0.6162 1.5852 -0.9554
v  1.5853 1.5852 -0.9554
v  3.7867 1.5852 -0.9554
v  6.1477 1.5852 -0.9554
v  -2.1211 1.5852 -3.7648
v  -0.6162 1.5852 -4.5295
v  1.5853 1.5852 -4.7855
v  3.7867 1.5852 -4.2685
v  4.5861 1.5852 -3.9348
v  -2.0003 7.7225 4.2509
v  -0.0275 7.7899 4.7181
v  -0.6162 8.5400 3.0165
v  -3.1197 8.5400 1.8104
v  1.5853 8.4878 5.5588
v  1.5853 9.8390 3.0165
v  3.7867 8.4878 5.5588
v  3.7867 9.8390 3.0165
v  5.0610 8.4878 4.9477
v  6.3864 9.8390 3.0165
v  -0.6162 9.6902 -0.9575
v  -3.1197 9.4826 -0.9575
v  1.5853 10.9893 -0.9575
v  3.7867 10.9893 -0.9575
v  5.6212 10.9893 -0.9575
v  -0.6162 10.8047 -3.9471
v  -1.6789 10.2187 -3.1740
v  1.5853 10.8047 -4.2874
v  3.7867 10.8047 -3.9471
v  4.6008 10.3180 -3.5288
v  -0.6162 4.5238 6.9885
v  -2.4915 4.5238 6.3542
v  1.5853 4.5238 6.9885
v  3.7867 4.5238 6.9885
v  5.5868 4.5238 6.1369
v  -0.6162 7.3184 6.0816
v  -2.6174 7.0650 5.1013
v  1.5853 7.4625 6.6679
v  3.7867 7.4625 6.6679
v  5.5868 7.4625 5.8163
v  6.3864 4.5238 3.0165
v  6.3864 4.5238 -0.9554
v  5.9882 4.5238 -4.9274
v  6.3864 7.4625 3.0165
v  6.3864 7.4625 -0.9554
v  5.9882 7.4625 -4.9274
v  3.7867 4.5238 -4.9274
v  1.5853 4.5238 -4.9274
v  -0.6162 4.5238 -4.9274
v  -2.8176 4.5238 -4.9274
v  3.7867 7.4625 -4.9274
v  1.5853 7.4625 -4.9274
v  -0.6162 7.4625 -4.9274
v  -2.8176 7.4625 -4.9274
v  -3.1197 4.5238 -0.9554
v  -3.1197 4.5238 3.0165
v  -3.1197 7.4625 -0.9554
v  -3.1197 7.4625 3.0165
# 68 vertices

vn 0.0000 -1.0000 -0.0000
vn -0.1629 0.8968 0.4113
vn -0.3770 0.8117 0.4461
vn -0.3042 0.8761 0.3740
vn -0.1338 0.9385 0.3184
vn -0.2560 0.8536 0.4537
vn -0.2512 0.8960 0.3662
vn 0.0571 0.8562 0.5135
vn 0.0000 0.9267 0.3757
vn 0.3271 0.6540 0.6821
vn 0.0328 0.9204 0.3896
vn -0.2559 0.9315 0.2585
vn -0.0997 0.9438 0.3151
vn -0.2545 0.9613 0.1058
vn 0.0306 0.9970 0.0712
vn 0.0000 0.9979 0.0642
vn -0.0323 0.9474 0.3183
vn -0.5063 0.8613 -0.0431
vn -0.0988 0.9928 0.0682
vn 0.2287 0.9718 -0.0575
vn 0.3900 0.9136 -0.1150
vn -0.4950 -0.1361 0.8582
vn -0.3498 -0.0561 0.9351
vn -0.2097 0.0500 0.9765
vn -0.3552 0.0752 0.9318
vn -0.0587 0.0000 0.9983
vn -0.0121 0.0413 0.9991
vn 0.2893 -0.0516 0.9558
vn 0.2173 0.0527 0.9747
vn 0.6191 -0.1562 0.7696
vn 0.4534 0.0343 0.8907
vn -0.3466 0.6685 0.6580
vn -0.3434 0.6734 0.6547
vn -0.0976 0.4673 0.8787
vn 0.1938 0.4262 0.8836
vn 0.3878 0.4215 0.8197
vn -0.3398 0.9153 0.2160
vn -0.1544 0.8327 0.5317
vn -0.1685 0.7923 0.5864
vn 0.1713 0.7235 0.6688
vn 0.3066 0.7004 0.6446
vn 0.9757 -0.0170 0.2183
vn 0.9876 -0.0287 0.1542
vn 0.9596 -0.1244 0.2525
vn 0.9300 -0.1317 0.3432
vn 0.9706 -0.1840 -0.1553
vn 0.9978 -0.0322 -0.0587
vn 0.7664 -0.5013 -0.4017
vn 0.9718 -0.1494 -0.1825
vn 0.9936 0.0288 0.1096
vn 0.9027 0.1769 0.3921
vn 0.9860 0.1430 -0.0855
vn 0.9729 0.2097 -0.0975
vn 0.9962 0.0786 0.0366
vn 0.2599 0.6983 0.6670
vn 0.9532 0.1711 -0.2493
vn 0.9059 0.3443 -0.2466
vn 0.2468 -0.2492 -0.9365
vn 0.2640 -0.1638 -0.9505
vn 0.0165 -0.1319 -0.9911
vn 0.0000 -0.1368 -0.9906
vn 0.0812 -0.0738 -0.9940
vn 0.0237 -0.0497 -0.9985
vn -0.1942 -0.2326 -0.9530
vn -0.0118 -0.0545 -0.9984
vn -0.4115 -0.4180 -0.8099
vn -0.0673 -0.1114 -0.9915
vn 0.0137 0.1270 -0.9918
vn 0.0492 0.1506 -0.9874
vn -0.0137 0.1097 -0.9939
vn -0.0443 0.1964 -0.9795
vn 0.0000 0.2460 -0.9693
vn 0.2613 0.3784 -0.8880
vn 0.6185 0.5670 -0.5441
vn -0.0279 0.2182 -0.9755
vn -0.3700 0.2289 -0.9004
vn -0.4710 0.3370 -0.8152
vn -0.9708 -0.1536 -0.1843
vn -0.9855 0.0000 -0.1699
vn -0.9969 -0.0334 -0.0710
vn -0.9907 -0.1135 -0.0753
vn -0.9876 -0.0610 0.1445
vn -0.9951 0.0059 0.0985
vn -0.8843 -0.2551 0.3911
vn -0.9673 -0.0556 0.2475
vn -0.9993 0.0000 -0.0379
vn -0.9804 0.1353 -0.1434
vn -0.9239 0.2811 0.2596
vn -0.9277 0.2761 0.2514
vn -0.9808 0.1525 -0.1217
vn -0.7797 0.5321 -0.3301
vn -0.9910 0.0997 0.0890
vn -0.5471 0.7673 0.3346
# 93 vertex normals

vt 0.4486 0.7090 0.0000
vt 0.4486 0.8041 0.0000
vt 0.3936 0.8041 0.0000
vt 0.3936 0.7090 0.0000
vt 0.3349 0.8041 0.0000
vt 0.3349 0.7090 0.0000
vt 0.2772 0.8041 0.0000
vt 0.2772 0.7090 0.0000
vt 0.2304 0.8041 0.0000
vt 0.2304 0.7090 0.0000
vt 0.4486 0.9078 0.0000
vt 0.3936 0.9078 0.0000
vt 0.3349 0.9078 0.0000
vt 0.2772 0.9078 0.0000
vt 0.2304 0.9078 0.0000
vt 0.4486 0.9969 0.0000
vt 0.3936 0.9969 0.0000
vt 0.3349 0.9969 0.0000
vt 0.2772 0.9969 0.0000
vt 0.2304 0.9969 0.0000
vt 0.4486 0.5167 0.0000
vt 0.3936 0.5167 0.0000
vt 0.3936 0.4420 0.0000
vt 0.4486 0.4420 0.0000
vt 0.3349 0.5167 0.0000
vt 0.3349 0.4420 0.0000
vt 0.2772 0.5167 0.0000
vt 0.2772 0.4420 0.0000
vt 0.2304 0.5167 0.0000
vt 0.2304 0.4420 0.0000
vt 0.3936 0.3390 0.0000
vt 0.4486 0.3390 0.0000
vt 0.3349 0.3390 0.0000
vt 0.2772 0.3390 0.0000
vt 0.2304 0.3390 0.0000
vt 0.3936 0.2502 0.0000
vt 0.4486 0.2502 0.0000
vt 0.3349 0.2502 0.0000
vt 0.2772 0.2502 0.0000
vt 0.2304 0.2502 0.0000
vt 0.3936 0.6311 0.0000
vt 0.4486 0.6311 0.0000
vt 0.3349 0.6311 0.0000
vt 0.2772 0.6311 0.0000
vt 0.2304 0.6311 0.0000
vt 0.3936 0.5546 0.0000
vt 0.4486 0.5546 0.0000
vt 0.3349 0.5546 0.0000
vt 0.2772 0.5546 0.0000
vt 0.2304 0.5546 0.0000
vt 0.0019 0.4420 0.0000
vt 0.0824 0.4420 0.0000
vt 0.0824 0.5167 0.0000
vt 0.0019 0.5167 0.0000
vt 0.0019 0.3390 0.0000
vt 0.0824 0.3390 0.0000
vt 0.0019 0.2502 0.0000
vt 0.0824 0.2502 0.0000
vt 0.1593 0.4420 0.0000
vt 0.1593 0.5167 0.0000
vt 0.1593 0.3390 0.0000
vt 0.1593 0.2502 0.0000
vt 0.2304 0.0019 0.0000
vt 0.2772 0.0019 0.0000
vt 0.2772 0.0832 0.0000
vt 0.2304 0.0832 0.0000
vt 0.3349 0.0019 0.0000
vt 0.3349 0.0832 0.0000
vt 0.3936 0.0019 0.0000
vt 0.3936 0.0832 0.0000
vt 0.4486 0.0019 0.0000
vt 0.4486 0.0832 0.0000
vt 0.2772 0.1599 0.0000
vt 0.2304 0.1599 0.0000
vt 0.3349 0.1599 0.0000
vt 0.3936 0.1599 0.0000
vt 0.4486 0.1599 0.0000
vt 0.6584 0.2502 0.0000
vt 0.6584 0.3390 0.0000
vt 0.5790 0.3390 0.0000
vt 0.5790 0.2502 0.0000
vt 0.6584 0.4420 0.0000
vt 0.5790 0.4420 0.0000
vt 0.6584 0.5167 0.0000
vt 0.5790 0.5167 0.0000
vt 0.5030 0.3390 0.0000
vt 0.5030 0.2502 0.0000
vt 0.5030 0.4420 0.0000
vt 0.5030 0.5167 0.0000
# 89 texture coords

g Box001
usemtl _ROCK_2wire_214228153
s 2
f 1/1/1 2/2/1 3/3/1 4/4/1 
f 4/4/1 3/3/1 5/5/1 6/6/1 
f 5/5/1 7/7/1 8/8/1 6/6/1 
f 7/7/1 9/9/1 10/10/1 8/8/1 
f 11/11/1 12/12/1 3/3/1 2/2/1 
f 12/12/1 13/13/1 5/5/1 3/3/1 
f 13/13/1 14/14/1 7/7/1 5/5/1 
f 7/7/1 14/14/1 15/15/1 9/9/1 
f 16/16/1 17/17/1 12/12/1 11/11/1 
f 17/17/1 18/18/1 13/13/1 12/12/1 
f 13/13/1 18/18/1 19/19/1 14/14/1 
f 14/14/1 19/19/1 20/20/1 15/15/1 
s 4
f 21/21/2 22/22/3 23/23/4 24/24/5 
f 22/22/3 25/25/6 26/26/7 23/23/4 
f 27/27/8 28/28/9 26/26/7 25/25/6 
f 29/29/10 30/30/11 28/28/9 27/27/8 
f 24/24/5 23/23/4 31/31/12 32/32/13 
f 26/26/7 33/33/14 31/31/12 23/23/4 
f 28/28/9 34/34/15 33/33/14 26/26/7 
f 28/28/9 30/30/11 35/35/16 34/34/15 
f 31/31/12 36/36/17 37/37/18 32/32/13 
f 33/33/14 38/38/19 36/36/17 31/31/12 
f 33/33/14 34/34/15 39/39/20 38/38/19 
f 34/34/15 35/35/16 40/40/21 39/39/20 
s 8
f 1/1/22 4/4/23 41/41/24 42/42/25 
f 6/6/26 43/43/27 41/41/24 4/4/23 
f 8/8/28 44/44/29 43/43/27 6/6/26 
f 10/10/30 45/45/31 44/44/29 8/8/28 
f 42/42/25 41/41/24 46/46/32 47/47/33 
f 43/43/27 48/48/34 46/46/32 41/41/24 
f 44/44/29 49/49/35 48/48/34 43/43/27 
f 45/45/31 50/50/36 49/49/35 44/44/29 
f 46/46/32 22/22/37 21/21/38 47/47/33 
f 48/48/34 25/25/39 22/22/37 46/46/32 
f 49/49/35 27/27/40 25/25/39 48/48/34 
f 50/50/36 29/29/41 27/27/40 49/49/35 
s 16
f 9/51/42 51/52/43 45/53/44 10/54/45 
f 15/55/46 52/56/47 51/52/43 9/51/42 
f 20/57/48 53/58/49 52/56/47 15/55/46 
f 51/52/43 54/59/50 50/60/51 45/53/44 
f 52/56/47 55/61/52 54/59/50 51/52/43 
f 53/58/49 56/62/53 55/61/52 52/56/47 
f 54/59/50 30/30/54 29/29/55 50/60/51 
f 55/61/52 35/35/56 30/30/54 54/59/50 
f 55/61/52 56/62/53 40/40/57 35/35/56 
s 32
f 20/63/58 19/64/59 57/65/60 53/66/61 
f 18/67/62 58/68/63 57/65/60 19/64/59 
f 18/67/62 17/69/64 59/70/65 58/68/63 
f 16/71/66 60/72/67 59/70/65 17/69/64 
f 57/65/60 61/73/68 56/74/69 53/66/61 
f 58/68/63 62/75/70 61/73/68 57/65/60 
f 59/70/65 63/76/71 62/75/70 58/68/63 
f 60/72/67 64/77/72 63/76/71 59/70/65 
f 61/73/68 39/39/73 40/40/74 56/74/69 
f 61/73/68 62/75/70 38/38/75 39/39/73 
f 63/76/71 36/36/76 38/38/75 62/75/70 
f 63/76/71 64/77/72 37/37/77 36/36/76 
s 64
f 16/78/78 11/79/79 65/80/80 60/81/81 
f 2/82/82 66/83/83 65/80/80 11/79/79 
f 1/84/84 42/85/85 66/83/83 2/82/82 
f 65/80/80 67/86/86 64/87/87 60/81/81 
f 66/83/83 68/88/88 67/86/86 65/80/80 
f 66/83/83 42/85/85 47/89/89 68/88/88 
f 67/86/86 32/32/90 37/37/91 64/87/87 
f 67/86/86 68/88/88 24/24/92 32/32/90 
f 68/88/88 47/89/89 21/21/93 24/24/92 
# 66 polygons

